STARTFONT 2.1
COMMENT
COMMENT Converted from OpenType font "Oxanium-Light.ttf" by "otf2bdf 3.0".
COMMENT
FONT -FreeType-Oxanium Light-Medium-R-Normal--19-190-72-72-P-81-ISO10646-1
SIZE 19 72 72
FONTBOUNDINGBOX 30 23 -8 -4
STARTPROPERTIES 19
FOUNDRY "FreeType"
FAMILY_NAME "Oxanium Light"
WEIGHT_NAME "Medium"
SLANT "R"
SETWIDTH_NAME "Normal"
ADD_STYLE_NAME ""
PIXEL_SIZE 19
POINT_SIZE 190
RESOLUTION_X 72
RESOLUTION_Y 72
SPACING "P"
AVERAGE_WIDTH 81
CHARSET_REGISTRY "ISO10646"
CHARSET_ENCODING "1"
FONT_ASCENT 15
FONT_DESCENT 3
COPYRIGHT "Copyright 2019 The Oxanium Project Authors (https://github.com/sevmeyer/oxanium)"
_OTF_FONTFILE "Oxanium-Light.ttf"
_OTF_PSNAME "Oxanium-Light"
ENDPROPERTIES
CHARS 357
STARTCHAR 0000
ENCODING 0
SWIDTH 0 0
DWIDTH 0 0
BBX 0 0 0 0
BITMAP
ENDCHAR
STARTCHAR 000D
ENCODING 13
SWIDTH 263 0
DWIDTH 5 0
BBX 0 0 0 0
BITMAP
ENDCHAR
STARTCHAR 0020
ENCODING 32
SWIDTH 263 0
DWIDTH 5 0
BBX 0 0 0 0
BITMAP
ENDCHAR
STARTCHAR 0021
ENCODING 33
SWIDTH 263 0
DWIDTH 5 0
BBX 1 13 2 0
BITMAP
80
80
80
80
80
80
80
80
80
00
00
80
80
ENDCHAR
STARTCHAR 0022
ENCODING 34
SWIDTH 368 0
DWIDTH 7 0
BBX 5 5 1 9
BITMAP
C8
C8
C8
C8
C8
ENDCHAR
STARTCHAR 0023
ENCODING 35
SWIDTH 684 0
DWIDTH 13 0
BBX 11 13 1 0
BITMAP
1100
1100
1100
1100
FFE0
1100
1100
1100
FFE0
1100
1100
1100
1100
ENDCHAR
STARTCHAR 0024
ENCODING 36
SWIDTH 578 0
DWIDTH 11 0
BBX 9 19 1 -3
BITMAP
0800
0800
0800
7F00
4000
C000
C000
C000
6000
3E00
0100
0180
0180
0180
0100
FF00
0800
0800
0800
ENDCHAR
STARTCHAR 0025
ENCODING 37
SWIDTH 842 0
DWIDTH 16 0
BBX 14 13 1 0
BITMAP
F820
8840
8840
8880
8880
893C
8944
FA44
0244
0444
0444
0844
183C
ENDCHAR
STARTCHAR 0026
ENCODING 38
SWIDTH 631 0
DWIDTH 12 0
BBX 11 13 1 0
BITMAP
3F00
4000
4000
4000
4000
4000
3FE0
4080
C080
C080
C080
4080
7F80
ENDCHAR
STARTCHAR 0027
ENCODING 39
SWIDTH 210 0
DWIDTH 4 0
BBX 2 5 1 9
BITMAP
C0
C0
C0
C0
C0
ENDCHAR
STARTCHAR 0028
ENCODING 40
SWIDTH 315 0
DWIDTH 6 0
BBX 4 17 1 -3
BITMAP
10
30
20
60
40
40
40
C0
C0
C0
40
40
40
60
20
30
10
ENDCHAR
STARTCHAR 0029
ENCODING 41
SWIDTH 315 0
DWIDTH 6 0
BBX 4 17 0 -3
BITMAP
C0
40
20
20
30
10
10
10
10
10
10
10
30
20
20
40
C0
ENDCHAR
STARTCHAR 002A
ENCODING 42
SWIDTH 473 0
DWIDTH 9 0
BBX 8 7 1 6
BITMAP
10
10
91
7E
18
28
44
ENDCHAR
STARTCHAR 002B
ENCODING 43
SWIDTH 578 0
DWIDTH 11 0
BBX 9 9 1 2
BITMAP
0800
0800
0800
0800
FF80
0800
0800
0800
0800
ENDCHAR
STARTCHAR 002C
ENCODING 44
SWIDTH 263 0
DWIDTH 5 0
BBX 2 5 1 -3
BITMAP
40
C0
80
80
80
ENDCHAR
STARTCHAR 002D
ENCODING 45
SWIDTH 368 0
DWIDTH 7 0
BBX 5 1 1 6
BITMAP
F8
ENDCHAR
STARTCHAR 002E
ENCODING 46
SWIDTH 263 0
DWIDTH 5 0
BBX 1 2 2 0
BITMAP
80
80
ENDCHAR
STARTCHAR 002F
ENCODING 47
SWIDTH 368 0
DWIDTH 7 0
BBX 7 15 0 -1
BITMAP
02
04
04
0C
08
08
18
10
10
20
20
20
40
40
C0
ENDCHAR
STARTCHAR 0030
ENCODING 48
SWIDTH 578 0
DWIDTH 11 0
BBX 9 13 1 0
BITMAP
7F00
C100
C180
C180
C180
C180
C180
C180
C180
C180
C180
C100
7F00
ENDCHAR
STARTCHAR 0031
ENCODING 49
SWIDTH 578 0
DWIDTH 11 0
BBX 7 13 2 0
BITMAP
70
10
10
10
10
10
10
10
10
10
10
10
FE
ENDCHAR
STARTCHAR 0032
ENCODING 50
SWIDTH 578 0
DWIDTH 11 0
BBX 9 13 1 0
BITMAP
7F00
0100
0180
0180
0180
0100
3E00
6000
C000
C000
C000
C000
FF80
ENDCHAR
STARTCHAR 0033
ENCODING 51
SWIDTH 578 0
DWIDTH 11 0
BBX 9 13 1 0
BITMAP
7F00
0100
0180
0180
0180
0100
3F00
0180
0180
0180
0180
0180
FF00
ENDCHAR
STARTCHAR 0034
ENCODING 52
SWIDTH 578 0
DWIDTH 11 0
BBX 9 13 1 0
BITMAP
0400
0800
0800
1000
1000
2180
2180
4180
4180
FF80
0180
0180
0180
ENDCHAR
STARTCHAR 0035
ENCODING 53
SWIDTH 578 0
DWIDTH 11 0
BBX 9 13 1 0
BITMAP
FF00
C000
C000
C000
C000
FF00
0100
0180
0180
0180
0180
0100
FF00
ENDCHAR
STARTCHAR 0036
ENCODING 54
SWIDTH 578 0
DWIDTH 11 0
BBX 9 13 1 0
BITMAP
3F00
4000
C000
C000
C000
FF00
C100
C180
C180
C180
C180
C100
7F00
ENDCHAR
STARTCHAR 0037
ENCODING 55
SWIDTH 578 0
DWIDTH 11 0
BBX 9 13 1 0
BITMAP
FF80
0180
0180
0100
0100
0200
0600
0400
0C00
0800
1800
1000
3000
ENDCHAR
STARTCHAR 0038
ENCODING 56
SWIDTH 578 0
DWIDTH 11 0
BBX 9 13 1 0
BITMAP
7F00
C100
C180
C180
C180
4100
7F00
C180
C180
C180
C180
C180
7F00
ENDCHAR
STARTCHAR 0039
ENCODING 57
SWIDTH 578 0
DWIDTH 11 0
BBX 9 13 1 0
BITMAP
7F00
4100
C180
C180
C180
C180
C180
7F80
0180
0180
0180
0100
7E00
ENDCHAR
STARTCHAR 003A
ENCODING 58
SWIDTH 263 0
DWIDTH 5 0
BBX 1 10 2 0
BITMAP
80
80
00
00
00
00
00
00
80
80
ENDCHAR
STARTCHAR 003B
ENCODING 59
SWIDTH 263 0
DWIDTH 5 0
BBX 2 13 1 -3
BITMAP
40
40
00
00
00
00
00
00
40
C0
80
80
80
ENDCHAR
STARTCHAR 003C
ENCODING 60
SWIDTH 578 0
DWIDTH 11 0
BBX 9 9 1 2
BITMAP
0180
0700
1C00
6000
8000
6000
1C00
0700
0180
ENDCHAR
STARTCHAR 003D
ENCODING 61
SWIDTH 578 0
DWIDTH 11 0
BBX 9 5 1 4
BITMAP
FF80
0000
0000
0000
FF80
ENDCHAR
STARTCHAR 003E
ENCODING 62
SWIDTH 578 0
DWIDTH 11 0
BBX 9 9 1 2
BITMAP
C000
7000
1C00
0300
0080
0300
1C00
7000
C000
ENDCHAR
STARTCHAR 003F
ENCODING 63
SWIDTH 473 0
DWIDTH 9 0
BBX 7 13 1 0
BITMAP
FE
02
02
02
02
02
3E
30
30
00
00
30
30
ENDCHAR
STARTCHAR 0040
ENCODING 64
SWIDTH 789 0
DWIDTH 15 0
BBX 11 16 2 -3
BITMAP
7FE0
8020
8020
8020
87E0
8820
8820
8820
8820
8820
8820
87E0
8000
8000
8000
7FE0
ENDCHAR
STARTCHAR 0041
ENCODING 65
SWIDTH 631 0
DWIDTH 12 0
BBX 11 13 0 0
BITMAP
0600
0E00
0900
0900
1180
1080
1080
20C0
3FC0
6040
4060
4020
C020
ENDCHAR
STARTCHAR 0042
ENCODING 66
SWIDTH 631 0
DWIDTH 12 0
BBX 9 13 2 0
BITMAP
FF00
8100
8180
8180
8180
8100
FF00
8180
8080
8080
8080
8180
FF00
ENDCHAR
STARTCHAR 0043
ENCODING 67
SWIDTH 631 0
DWIDTH 12 0
BBX 9 13 2 0
BITMAP
7F80
8000
8000
8000
8000
8000
8000
8000
8000
8000
8000
8000
7F80
ENDCHAR
STARTCHAR 0044
ENCODING 68
SWIDTH 684 0
DWIDTH 13 0
BBX 10 13 2 0
BITMAP
FE00
8180
8080
8080
8080
80C0
80C0
80C0
8080
8080
8080
8180
FE00
ENDCHAR
STARTCHAR 0045
ENCODING 69
SWIDTH 578 0
DWIDTH 11 0
BBX 8 13 2 0
BITMAP
FF
80
80
80
80
80
FF
80
80
80
80
80
FF
ENDCHAR
STARTCHAR 0046
ENCODING 70
SWIDTH 578 0
DWIDTH 11 0
BBX 8 13 2 0
BITMAP
FF
80
80
80
80
80
FF
80
80
80
80
80
80
ENDCHAR
STARTCHAR 0047
ENCODING 71
SWIDTH 684 0
DWIDTH 13 0
BBX 9 13 2 0
BITMAP
7F80
8000
8000
8000
8000
8000
8780
8080
8080
8080
8080
8080
7F80
ENDCHAR
STARTCHAR 0048
ENCODING 72
SWIDTH 684 0
DWIDTH 13 0
BBX 10 13 2 0
BITMAP
80C0
80C0
80C0
80C0
80C0
80C0
FFC0
80C0
80C0
80C0
80C0
80C0
80C0
ENDCHAR
STARTCHAR 0049
ENCODING 73
SWIDTH 263 0
DWIDTH 5 0
BBX 1 13 2 0
BITMAP
80
80
80
80
80
80
80
80
80
80
80
80
80
ENDCHAR
STARTCHAR 004A
ENCODING 74
SWIDTH 578 0
DWIDTH 11 0
BBX 9 13 1 0
BITMAP
1F80
0080
0080
0080
0080
0080
0080
0080
8080
8080
8080
C180
7F00
ENDCHAR
STARTCHAR 004B
ENCODING 75
SWIDTH 631 0
DWIDTH 12 0
BBX 9 13 2 0
BITMAP
8180
8300
8600
8C00
9800
B000
B800
CC00
8400
8200
8300
8100
8080
ENDCHAR
STARTCHAR 004C
ENCODING 76
SWIDTH 526 0
DWIDTH 10 0
BBX 8 13 2 0
BITMAP
80
80
80
80
80
80
80
80
80
80
80
80
FF
ENDCHAR
STARTCHAR 004D
ENCODING 77
SWIDTH 842 0
DWIDTH 16 0
BBX 12 13 2 0
BITMAP
C030
C030
E030
A050
B050
9090
9890
8910
8D10
8610
8610
8010
8010
ENDCHAR
STARTCHAR 004E
ENCODING 78
SWIDTH 736 0
DWIDTH 14 0
BBX 10 13 2 0
BITMAP
C040
C040
E040
A040
9040
9840
8840
8440
8640
8240
8140
81C0
80C0
ENDCHAR
STARTCHAR 004F
ENCODING 79
SWIDTH 684 0
DWIDTH 13 0
BBX 10 13 2 0
BITMAP
7F80
8080
80C0
80C0
80C0
80C0
80C0
80C0
80C0
80C0
80C0
8080
7F80
ENDCHAR
STARTCHAR 0050
ENCODING 80
SWIDTH 631 0
DWIDTH 12 0
BBX 9 13 2 0
BITMAP
FF00
8180
8180
8180
8180
8180
8180
FF00
8000
8000
8000
8000
8000
ENDCHAR
STARTCHAR 0051
ENCODING 81
SWIDTH 684 0
DWIDTH 13 0
BBX 10 16 2 -3
BITMAP
7F80
8080
80C0
80C0
80C0
80C0
80C0
80C0
80C0
80C0
80C0
8080
7F80
0200
0300
0100
ENDCHAR
STARTCHAR 0052
ENCODING 82
SWIDTH 631 0
DWIDTH 12 0
BBX 9 13 2 0
BITMAP
FF00
8180
8180
8180
8180
8180
8180
FF00
8600
8200
8100
8100
8080
ENDCHAR
STARTCHAR 0053
ENCODING 83
SWIDTH 578 0
DWIDTH 11 0
BBX 9 13 1 0
BITMAP
7F00
C000
8000
8000
C000
6000
3F00
0180
0180
0080
0080
0180
FF00
ENDCHAR
STARTCHAR 0054
ENCODING 84
SWIDTH 578 0
DWIDTH 11 0
BBX 11 13 0 0
BITMAP
FFE0
0400
0400
0400
0400
0400
0400
0400
0400
0400
0400
0400
0400
ENDCHAR
STARTCHAR 0055
ENCODING 85
SWIDTH 684 0
DWIDTH 13 0
BBX 9 13 2 0
BITMAP
8080
8080
8080
8080
8080
8080
8080
8080
8080
8080
8080
8080
7F00
ENDCHAR
STARTCHAR 0056
ENCODING 86
SWIDTH 631 0
DWIDTH 12 0
BBX 11 13 0 0
BITMAP
C020
4060
4040
6040
20C0
2080
3080
1180
1100
1900
0B00
0A00
0E00
ENDCHAR
STARTCHAR 0057
ENCODING 87
SWIDTH 894 0
DWIDTH 17 0
BBX 16 13 1 0
BITMAP
8003
8102
8182
C382
4286
4284
4244
6444
244C
2468
2C28
3828
1838
ENDCHAR
STARTCHAR 0058
ENCODING 88
SWIDTH 578 0
DWIDTH 11 0
BBX 10 13 1 0
BITMAP
80C0
4180
6100
2200
1600
1C00
0C00
1C00
3200
2300
6100
C080
80C0
ENDCHAR
STARTCHAR 0059
ENCODING 89
SWIDTH 578 0
DWIDTH 11 0
BBX 10 13 0 0
BITMAP
C040
40C0
2080
3180
1100
1B00
0A00
0C00
0400
0400
0400
0400
0400
ENDCHAR
STARTCHAR 005A
ENCODING 90
SWIDTH 578 0
DWIDTH 11 0
BBX 9 13 1 0
BITMAP
FF80
0180
0100
0200
0600
0400
0800
1800
3000
2000
4000
C000
FF80
ENDCHAR
STARTCHAR 005B
ENCODING 91
SWIDTH 315 0
DWIDTH 6 0
BBX 4 17 2 -3
BITMAP
F0
80
80
80
80
80
80
80
80
80
80
80
80
80
80
80
F0
ENDCHAR
STARTCHAR 005C
ENCODING 92
SWIDTH 368 0
DWIDTH 7 0
BBX 7 15 0 -1
BITMAP
C0
40
40
20
20
20
10
10
18
08
08
0C
04
04
02
ENDCHAR
STARTCHAR 005D
ENCODING 93
SWIDTH 315 0
DWIDTH 6 0
BBX 3 17 1 -3
BITMAP
E0
20
20
20
20
20
20
20
20
20
20
20
20
20
20
20
E0
ENDCHAR
STARTCHAR 005E
ENCODING 94
SWIDTH 526 0
DWIDTH 10 0
BBX 8 7 1 6
BITMAP
18
18
24
26
42
C3
81
ENDCHAR
STARTCHAR 005F
ENCODING 95
SWIDTH 578 0
DWIDTH 11 0
BBX 9 1 1 -4
BITMAP
FF80
ENDCHAR
STARTCHAR 0060
ENCODING 96
SWIDTH 526 0
DWIDTH 10 0
BBX 3 4 3 11
BITMAP
80
C0
40
20
ENDCHAR
STARTCHAR 0061
ENCODING 97
SWIDTH 526 0
DWIDTH 10 0
BBX 8 10 1 0
BITMAP
7E
03
01
01
7F
C1
81
81
C1
7F
ENDCHAR
STARTCHAR 0062
ENCODING 98
SWIDTH 578 0
DWIDTH 11 0
BBX 8 14 2 0
BITMAP
80
80
80
80
FE
82
83
83
83
83
83
83
82
FE
ENDCHAR
STARTCHAR 0063
ENCODING 99
SWIDTH 526 0
DWIDTH 10 0
BBX 8 10 1 0
BITMAP
7F
40
C0
C0
C0
C0
C0
C0
40
7F
ENDCHAR
STARTCHAR 0064
ENCODING 100
SWIDTH 578 0
DWIDTH 11 0
BBX 8 14 1 0
BITMAP
01
01
01
01
7F
41
C1
C1
C1
C1
C1
C1
41
7F
ENDCHAR
STARTCHAR 0065
ENCODING 101
SWIDTH 578 0
DWIDTH 11 0
BBX 8 10 1 0
BITMAP
7F
41
C1
C1
FF
C0
C0
C0
40
7F
ENDCHAR
STARTCHAR 0066
ENCODING 102
SWIDTH 368 0
DWIDTH 7 0
BBX 5 14 2 0
BITMAP
F8
80
80
80
F0
80
80
80
80
80
80
80
80
80
ENDCHAR
STARTCHAR 0067
ENCODING 103
SWIDTH 578 0
DWIDTH 11 0
BBX 8 14 1 -4
BITMAP
7F
41
C1
C1
C1
C1
C1
C1
41
7F
01
01
01
7F
ENDCHAR
STARTCHAR 0068
ENCODING 104
SWIDTH 578 0
DWIDTH 11 0
BBX 8 14 2 0
BITMAP
80
80
80
80
FE
82
83
83
83
83
83
83
83
83
ENDCHAR
STARTCHAR 0069
ENCODING 105
SWIDTH 210 0
DWIDTH 4 0
BBX 2 14 1 0
BITMAP
C0
C0
00
00
40
40
40
40
40
40
40
40
40
40
ENDCHAR
STARTCHAR 006A
ENCODING 106
SWIDTH 210 0
DWIDTH 4 0
BBX 3 18 0 -4
BITMAP
60
60
00
00
20
20
20
20
20
20
20
20
20
20
20
20
60
C0
ENDCHAR
STARTCHAR 006B
ENCODING 107
SWIDTH 526 0
DWIDTH 10 0
BBX 7 14 2 0
BITMAP
80
80
80
80
86
8C
98
90
B0
D0
88
8C
84
82
ENDCHAR
STARTCHAR 006C
ENCODING 108
SWIDTH 263 0
DWIDTH 5 0
BBX 3 14 1 0
BITMAP
C0
C0
C0
C0
C0
C0
C0
C0
C0
C0
C0
C0
40
60
ENDCHAR
STARTCHAR 006D
ENCODING 109
SWIDTH 894 0
DWIDTH 17 0
BBX 13 10 2 0
BITMAP
FFF8
8208
8208
8208
8208
8208
8208
8208
8208
8208
ENDCHAR
STARTCHAR 006E
ENCODING 110
SWIDTH 578 0
DWIDTH 11 0
BBX 8 10 2 0
BITMAP
FE
82
83
83
83
83
83
83
83
83
ENDCHAR
STARTCHAR 006F
ENCODING 111
SWIDTH 578 0
DWIDTH 11 0
BBX 9 10 1 0
BITMAP
7F00
4100
C180
C180
C180
C180
C180
C180
4100
7F00
ENDCHAR
STARTCHAR 0070
ENCODING 112
SWIDTH 578 0
DWIDTH 11 0
BBX 8 14 2 -4
BITMAP
FE
82
83
83
83
83
83
83
82
FE
80
80
80
80
ENDCHAR
STARTCHAR 0071
ENCODING 113
SWIDTH 578 0
DWIDTH 11 0
BBX 8 14 1 -4
BITMAP
7F
41
C1
C1
C1
C1
C1
C1
41
7F
01
01
01
01
ENDCHAR
STARTCHAR 0072
ENCODING 114
SWIDTH 368 0
DWIDTH 7 0
BBX 5 10 1 0
BITMAP
78
C0
C0
C0
C0
C0
C0
C0
C0
C0
ENDCHAR
STARTCHAR 0073
ENCODING 115
SWIDTH 473 0
DWIDTH 9 0
BBX 7 10 1 0
BITMAP
7E
C0
80
C0
78
0E
02
02
02
FC
ENDCHAR
STARTCHAR 0074
ENCODING 116
SWIDTH 368 0
DWIDTH 7 0
BBX 6 13 1 0
BITMAP
C0
C0
C0
F8
C0
C0
C0
C0
C0
C0
C0
40
7C
ENDCHAR
STARTCHAR 0075
ENCODING 117
SWIDTH 578 0
DWIDTH 11 0
BBX 9 10 1 0
BITMAP
C180
C180
C180
C180
C180
C180
C180
C180
4180
7F80
ENDCHAR
STARTCHAR 0076
ENCODING 118
SWIDTH 526 0
DWIDTH 10 0
BBX 9 10 0 0
BITMAP
C080
4080
4180
2100
2100
2200
1200
1200
1400
0C00
ENDCHAR
STARTCHAR 0077
ENCODING 119
SWIDTH 789 0
DWIDTH 15 0
BBX 14 10 0 0
BITMAP
C104
4304
428C
4288
2488
2448
2448
2C50
1850
1830
ENDCHAR
STARTCHAR 0078
ENCODING 120
SWIDTH 526 0
DWIDTH 10 0
BBX 8 10 1 0
BITMAP
83
42
64
2C
18
18
2C
64
C2
81
ENDCHAR
STARTCHAR 0079
ENCODING 121
SWIDTH 526 0
DWIDTH 10 0
BBX 9 14 0 -4
BITMAP
C080
4080
4180
2100
2100
2200
1200
1200
1400
0C00
0C00
0800
0800
1800
ENDCHAR
STARTCHAR 007A
ENCODING 122
SWIDTH 526 0
DWIDTH 10 0
BBX 8 10 1 0
BITMAP
FE
02
04
0C
18
10
20
60
C0
FF
ENDCHAR
STARTCHAR 007B
ENCODING 123
SWIDTH 368 0
DWIDTH 7 0
BBX 5 17 1 -3
BITMAP
18
20
20
20
20
20
20
40
80
40
20
20
20
20
20
20
18
ENDCHAR
STARTCHAR 007C
ENCODING 124
SWIDTH 263 0
DWIDTH 5 0
BBX 1 18 2 -4
BITMAP
80
80
80
80
80
80
80
80
80
80
80
80
80
80
80
80
80
80
ENDCHAR
STARTCHAR 007D
ENCODING 125
SWIDTH 368 0
DWIDTH 7 0
BBX 5 17 1 -3
BITMAP
C0
20
20
20
20
20
20
10
08
10
20
20
20
20
20
20
C0
ENDCHAR
STARTCHAR 007E
ENCODING 126
SWIDTH 578 0
DWIDTH 11 0
BBX 9 3 1 5
BITMAP
3080
4900
8600
ENDCHAR
STARTCHAR 00A0
ENCODING 160
SWIDTH 263 0
DWIDTH 5 0
BBX 0 0 0 0
BITMAP
ENDCHAR
STARTCHAR 00A1
ENCODING 161
SWIDTH 263 0
DWIDTH 5 0
BBX 1 13 2 -3
BITMAP
80
80
00
00
80
80
80
80
80
80
80
80
80
ENDCHAR
STARTCHAR 00A2
ENCODING 162
SWIDTH 578 0
DWIDTH 11 0
BBX 7 14 2 -2
BITMAP
08
08
7E
80
80
80
80
80
80
80
80
7E
08
08
ENDCHAR
STARTCHAR 00A3
ENCODING 163
SWIDTH 578 0
DWIDTH 11 0
BBX 9 13 1 0
BITMAP
1F80
3000
2000
2000
2000
2000
FE00
2000
2000
2000
2000
2000
FF80
ENDCHAR
STARTCHAR 00A4
ENCODING 164
SWIDTH 578 0
DWIDTH 11 0
BBX 9 8 1 3
BITMAP
C180
7F00
2200
2200
2200
2200
7F00
C180
ENDCHAR
STARTCHAR 00A5
ENCODING 165
SWIDTH 578 0
DWIDTH 11 0
BBX 9 13 1 0
BITMAP
8080
C180
4100
2200
2200
1400
1C00
7F00
0800
7F00
0800
0800
0800
ENDCHAR
STARTCHAR 00A6
ENCODING 166
SWIDTH 263 0
DWIDTH 5 0
BBX 1 18 2 -4
BITMAP
80
80
80
80
80
80
80
00
00
00
00
80
80
80
80
80
80
80
ENDCHAR
STARTCHAR 00A7
ENCODING 167
SWIDTH 526 0
DWIDTH 10 0
BBX 7 15 2 -2
BITMAP
FC
80
80
80
F0
9C
86
86
86
E6
3C
06
06
04
FC
ENDCHAR
STARTCHAR 00A8
ENCODING 168
SWIDTH 526 0
DWIDTH 10 0
BBX 5 2 2 12
BITMAP
C8
C8
ENDCHAR
STARTCHAR 00A9
ENCODING 169
SWIDTH 842 0
DWIDTH 16 0
BBX 12 14 2 0
BITMAP
FFF0
8010
8010
9F10
9010
9010
9010
9010
9010
9010
9F10
8010
8010
FFF0
ENDCHAR
STARTCHAR 00AA
ENCODING 170
SWIDTH 421 0
DWIDTH 8 0
BBX 6 8 1 5
BITMAP
F8
04
04
FC
84
84
84
FC
ENDCHAR
STARTCHAR 00AB
ENCODING 171
SWIDTH 473 0
DWIDTH 9 0
BBX 7 9 1 1
BITMAP
22
32
44
C8
98
C8
44
22
32
ENDCHAR
STARTCHAR 00AC
ENCODING 172
SWIDTH 578 0
DWIDTH 11 0
BBX 9 5 1 3
BITMAP
FF80
0080
0080
0080
0080
ENDCHAR
STARTCHAR 00AD
ENCODING 173
SWIDTH 368 0
DWIDTH 7 0
BBX 5 1 1 6
BITMAP
F8
ENDCHAR
STARTCHAR 00AE
ENCODING 174
SWIDTH 842 0
DWIDTH 16 0
BBX 12 14 2 0
BITMAP
FFF0
8010
8010
9F10
9090
9090
9090
9F10
9110
9110
9090
8010
8010
FFF0
ENDCHAR
STARTCHAR 00AF
ENCODING 175
SWIDTH 526 0
DWIDTH 10 0
BBX 5 1 2 12
BITMAP
F8
ENDCHAR
STARTCHAR 00B0
ENCODING 176
SWIDTH 421 0
DWIDTH 8 0
BBX 6 6 1 7
BITMAP
78
84
84
84
84
78
ENDCHAR
STARTCHAR 00B1
ENCODING 177
SWIDTH 578 0
DWIDTH 11 0
BBX 9 11 1 0
BITMAP
0800
0800
0800
0800
FF80
0800
0800
0800
0800
0000
FF80
ENDCHAR
STARTCHAR 00B2
ENCODING 178
SWIDTH 368 0
DWIDTH 7 0
BBX 5 8 1 5
BITMAP
F8
08
08
18
E0
80
80
F8
ENDCHAR
STARTCHAR 00B3
ENCODING 179
SWIDTH 368 0
DWIDTH 7 0
BBX 5 8 1 5
BITMAP
F8
08
08
70
08
08
08
F8
ENDCHAR
STARTCHAR 00B4
ENCODING 180
SWIDTH 526 0
DWIDTH 10 0
BBX 3 4 4 11
BITMAP
20
40
C0
80
ENDCHAR
STARTCHAR 00B5
ENCODING 181
SWIDTH 578 0
DWIDTH 11 0
BBX 8 14 2 -4
BITMAP
83
83
83
83
83
83
83
83
82
FE
80
80
80
80
ENDCHAR
STARTCHAR 00B6
ENCODING 182
SWIDTH 578 0
DWIDTH 11 0
BBX 8 16 1 -3
BITMAP
7B
7B
FB
FB
FB
FB
7B
7B
03
03
03
03
03
03
03
03
ENDCHAR
STARTCHAR 00B7
ENCODING 183
SWIDTH 263 0
DWIDTH 5 0
BBX 1 2 2 5
BITMAP
80
80
ENDCHAR
STARTCHAR 00B8
ENCODING 184
SWIDTH 526 0
DWIDTH 10 0
BBX 3 4 3 -3
BITMAP
20
20
20
E0
ENDCHAR
STARTCHAR 00B9
ENCODING 185
SWIDTH 368 0
DWIDTH 7 0
BBX 5 8 1 5
BITMAP
60
20
20
20
20
20
20
F8
ENDCHAR
STARTCHAR 00BA
ENCODING 186
SWIDTH 421 0
DWIDTH 8 0
BBX 6 8 1 5
BITMAP
FC
84
84
84
84
84
84
FC
ENDCHAR
STARTCHAR 00BB
ENCODING 187
SWIDTH 473 0
DWIDTH 9 0
BBX 7 9 1 1
BITMAP
98
88
44
26
32
26
44
88
98
ENDCHAR
STARTCHAR 00BC
ENCODING 188
SWIDTH 842 0
DWIDTH 16 0
BBX 14 13 1 0
BITMAP
6020
2060
2040
20C0
2080
2190
2110
FB20
0224
0624
0444
0C7C
0804
ENDCHAR
STARTCHAR 00BD
ENCODING 189
SWIDTH 894 0
DWIDTH 17 0
BBX 15 13 1 0
BITMAP
6020
2060
2040
20C0
2080
21BE
2102
FB02
0206
0638
0420
0C20
083E
ENDCHAR
STARTCHAR 00BE
ENCODING 190
SWIDTH 789 0
DWIDTH 15 0
BBX 14 13 1 0
BITMAP
F820
0840
0840
7080
0880
0910
0920
FA20
0224
0444
0444
08FC
1804
ENDCHAR
STARTCHAR 00BF
ENCODING 191
SWIDTH 473 0
DWIDTH 9 0
BBX 8 13 1 -3
BITMAP
08
08
00
00
08
08
78
80
80
80
80
C0
7F
ENDCHAR
STARTCHAR 00C0
ENCODING 192
SWIDTH 631 0
DWIDTH 12 0
BBX 11 18 0 0
BITMAP
0800
0C00
0400
0200
0000
0600
0E00
0900
0900
1180
1080
1080
20C0
3FC0
6040
4060
4020
C020
ENDCHAR
STARTCHAR 00C1
ENCODING 193
SWIDTH 631 0
DWIDTH 12 0
BBX 11 18 0 0
BITMAP
0100
0300
0600
0400
0000
0600
0E00
0900
0900
1180
1080
1080
20C0
3FC0
6040
4060
4020
C020
ENDCHAR
STARTCHAR 00C2
ENCODING 194
SWIDTH 631 0
DWIDTH 12 0
BBX 11 17 0 0
BITMAP
0400
0E00
1900
0000
0600
0E00
0900
0900
1180
1080
1080
20C0
3FC0
6040
4060
4020
C020
ENDCHAR
STARTCHAR 00C3
ENCODING 195
SWIDTH 631 0
DWIDTH 12 0
BBX 11 16 0 0
BITMAP
0C80
1300
0000
0600
0E00
0900
0900
1180
1080
1080
20C0
3FC0
6040
4060
4020
C020
ENDCHAR
STARTCHAR 00C4
ENCODING 196
SWIDTH 631 0
DWIDTH 12 0
BBX 11 17 0 0
BITMAP
0900
0900
0000
0000
0600
0E00
0900
0900
1180
1080
1080
20C0
3FC0
6040
4060
4020
C020
ENDCHAR
STARTCHAR 00C5
ENCODING 197
SWIDTH 631 0
DWIDTH 12 0
BBX 11 18 0 0
BITMAP
0F00
0900
0900
0F00
0000
0600
0E00
0900
0900
1180
1080
1080
20C0
3FC0
6040
4060
4020
C020
ENDCHAR
STARTCHAR 00C6
ENCODING 198
SWIDTH 894 0
DWIDTH 17 0
BBX 16 13 0 0
BITMAP
07FF
0C80
0880
0880
1080
1080
10FE
2080
3F80
6080
4080
4080
C0FF
ENDCHAR
STARTCHAR 00C7
ENCODING 199
SWIDTH 631 0
DWIDTH 12 0
BBX 9 16 2 -3
BITMAP
7F80
8000
8000
8000
8000
8000
8000
8000
8000
8000
8000
8000
7F80
0400
0400
3C00
ENDCHAR
STARTCHAR 00C8
ENCODING 200
SWIDTH 578 0
DWIDTH 11 0
BBX 8 18 2 0
BITMAP
20
30
10
08
00
FF
80
80
80
80
80
FF
80
80
80
80
80
FF
ENDCHAR
STARTCHAR 00C9
ENCODING 201
SWIDTH 578 0
DWIDTH 11 0
BBX 8 18 2 0
BITMAP
04
0C
18
10
00
FF
80
80
80
80
80
FF
80
80
80
80
80
FF
ENDCHAR
STARTCHAR 00CA
ENCODING 202
SWIDTH 578 0
DWIDTH 11 0
BBX 8 17 2 0
BITMAP
18
3C
66
00
FF
80
80
80
80
80
FF
80
80
80
80
80
FF
ENDCHAR
STARTCHAR 00CB
ENCODING 203
SWIDTH 578 0
DWIDTH 11 0
BBX 8 17 2 0
BITMAP
24
24
00
00
FF
80
80
80
80
80
FF
80
80
80
80
80
FF
ENDCHAR
STARTCHAR 00CC
ENCODING 204
SWIDTH 263 0
DWIDTH 5 0
BBX 3 18 0 0
BITMAP
80
40
20
20
00
20
20
20
20
20
20
20
20
20
20
20
20
20
ENDCHAR
STARTCHAR 00CD
ENCODING 205
SWIDTH 263 0
DWIDTH 5 0
BBX 4 18 1 0
BITMAP
30
20
40
C0
00
40
40
40
40
40
40
40
40
40
40
40
40
40
ENDCHAR
STARTCHAR 00CE
ENCODING 206
SWIDTH 263 0
DWIDTH 5 0
BBX 5 17 0 0
BITMAP
20
50
88
00
20
20
20
20
20
20
20
20
20
20
20
20
20
ENDCHAR
STARTCHAR 00CF
ENCODING 207
SWIDTH 263 0
DWIDTH 5 0
BBX 5 17 0 0
BITMAP
98
98
00
00
20
20
20
20
20
20
20
20
20
20
20
20
20
ENDCHAR
STARTCHAR 00D0
ENCODING 208
SWIDTH 684 0
DWIDTH 13 0
BBX 12 13 0 0
BITMAP
3FC0
2060
2020
2030
2030
2030
FE30
2030
2030
2030
2020
2060
3FC0
ENDCHAR
STARTCHAR 00D1
ENCODING 209
SWIDTH 736 0
DWIDTH 14 0
BBX 10 16 2 0
BITMAP
1900
2600
0000
C040
C040
E040
A040
9040
9840
8840
8440
8640
8240
8140
81C0
80C0
ENDCHAR
STARTCHAR 00D2
ENCODING 210
SWIDTH 684 0
DWIDTH 13 0
BBX 10 18 2 0
BITMAP
3000
1000
0800
0400
0000
7F80
8080
80C0
80C0
80C0
80C0
80C0
80C0
80C0
80C0
80C0
8080
7F80
ENDCHAR
STARTCHAR 00D3
ENCODING 211
SWIDTH 684 0
DWIDTH 13 0
BBX 10 18 2 0
BITMAP
0200
0400
0800
0800
0000
7F80
8080
80C0
80C0
80C0
80C0
80C0
80C0
80C0
80C0
80C0
8080
7F80
ENDCHAR
STARTCHAR 00D4
ENCODING 212
SWIDTH 684 0
DWIDTH 13 0
BBX 10 17 2 0
BITMAP
0800
1400
2200
0000
7F80
8080
80C0
80C0
80C0
80C0
80C0
80C0
80C0
80C0
80C0
8080
7F80
ENDCHAR
STARTCHAR 00D5
ENCODING 213
SWIDTH 684 0
DWIDTH 13 0
BBX 10 16 2 0
BITMAP
1A00
2E00
0000
7F80
8080
80C0
80C0
80C0
80C0
80C0
80C0
80C0
80C0
80C0
8080
7F80
ENDCHAR
STARTCHAR 00D6
ENCODING 214
SWIDTH 684 0
DWIDTH 13 0
BBX 10 17 2 0
BITMAP
3200
3200
0000
0000
7F80
8080
80C0
80C0
80C0
80C0
80C0
80C0
80C0
80C0
80C0
8080
7F80
ENDCHAR
STARTCHAR 00D7
ENCODING 215
SWIDTH 578 0
DWIDTH 11 0
BBX 7 7 2 3
BITMAP
82
44
28
10
28
44
82
ENDCHAR
STARTCHAR 00D8
ENCODING 216
SWIDTH 684 0
DWIDTH 13 0
BBX 10 13 2 0
BITMAP
7F80
8080
80C0
81C0
83C0
84C0
88C0
90C0
A0C0
C0C0
80C0
8080
7F80
ENDCHAR
STARTCHAR 00D9
ENCODING 217
SWIDTH 684 0
DWIDTH 13 0
BBX 9 18 2 0
BITMAP
3000
1000
0800
0C00
0000
8080
8080
8080
8080
8080
8080
8080
8080
8080
8080
8080
8080
7F00
ENDCHAR
STARTCHAR 00DA
ENCODING 218
SWIDTH 684 0
DWIDTH 13 0
BBX 9 18 2 0
BITMAP
0600
0400
0800
1800
0000
8080
8080
8080
8080
8080
8080
8080
8080
8080
8080
8080
8080
7F00
ENDCHAR
STARTCHAR 00DB
ENCODING 219
SWIDTH 684 0
DWIDTH 13 0
BBX 9 17 2 0
BITMAP
0800
1400
2200
0000
8080
8080
8080
8080
8080
8080
8080
8080
8080
8080
8080
8080
7F00
ENDCHAR
STARTCHAR 00DC
ENCODING 220
SWIDTH 684 0
DWIDTH 13 0
BBX 9 17 2 0
BITMAP
3200
3200
0000
0000
8080
8080
8080
8080
8080
8080
8080
8080
8080
8080
8080
8080
7F00
ENDCHAR
STARTCHAR 00DD
ENCODING 221
SWIDTH 578 0
DWIDTH 11 0
BBX 10 18 0 0
BITMAP
0300
0200
0400
0C00
0000
C040
40C0
2080
3180
1100
1B00
0A00
0C00
0400
0400
0400
0400
0400
ENDCHAR
STARTCHAR 00DE
ENCODING 222
SWIDTH 631 0
DWIDTH 12 0
BBX 9 13 2 0
BITMAP
8000
8000
FF00
8180
8180
8180
8180
8180
8180
FF00
8000
8000
8000
ENDCHAR
STARTCHAR 00DF
ENCODING 223
SWIDTH 578 0
DWIDTH 11 0
BBX 8 14 2 0
BITMAP
FE
82
83
83
83
82
9E
83
81
81
81
81
83
9E
ENDCHAR
STARTCHAR 00E0
ENCODING 224
SWIDTH 526 0
DWIDTH 10 0
BBX 8 15 1 0
BITMAP
20
30
18
08
00
7E
03
01
01
7F
C1
81
81
C1
7F
ENDCHAR
STARTCHAR 00E1
ENCODING 225
SWIDTH 526 0
DWIDTH 10 0
BBX 8 15 1 0
BITMAP
04
0C
08
10
00
7E
03
01
01
7F
C1
81
81
C1
7F
ENDCHAR
STARTCHAR 00E2
ENCODING 226
SWIDTH 526 0
DWIDTH 10 0
BBX 8 14 1 0
BITMAP
08
1C
26
00
7E
03
01
01
7F
C1
81
81
C1
7F
ENDCHAR
STARTCHAR 00E3
ENCODING 227
SWIDTH 526 0
DWIDTH 10 0
BBX 8 13 1 0
BITMAP
32
4C
00
7E
03
01
01
7F
C1
81
81
C1
7F
ENDCHAR
STARTCHAR 00E4
ENCODING 228
SWIDTH 526 0
DWIDTH 10 0
BBX 8 14 1 0
BITMAP
24
24
00
00
7E
03
01
01
7F
C1
81
81
C1
7F
ENDCHAR
STARTCHAR 00E5
ENCODING 229
SWIDTH 526 0
DWIDTH 10 0
BBX 8 15 1 0
BITMAP
3C
24
24
3C
00
7E
03
01
01
7F
C1
81
81
C1
7F
ENDCHAR
STARTCHAR 00E6
ENCODING 230
SWIDTH 894 0
DWIDTH 17 0
BBX 14 10 1 0
BITMAP
7EF8
0304
0304
0304
7FFC
C300
8300
8300
C300
7EFC
ENDCHAR
STARTCHAR 00E7
ENCODING 231
SWIDTH 526 0
DWIDTH 10 0
BBX 8 13 1 -3
BITMAP
7F
40
C0
C0
C0
C0
C0
C0
40
7F
04
04
38
ENDCHAR
STARTCHAR 00E8
ENCODING 232
SWIDTH 578 0
DWIDTH 11 0
BBX 8 15 1 0
BITMAP
30
10
08
0C
00
7F
41
C1
C1
FF
C0
C0
C0
40
7F
ENDCHAR
STARTCHAR 00E9
ENCODING 233
SWIDTH 578 0
DWIDTH 11 0
BBX 8 15 1 0
BITMAP
06
04
08
18
00
7F
41
C1
C1
FF
C0
C0
C0
40
7F
ENDCHAR
STARTCHAR 00EA
ENCODING 234
SWIDTH 578 0
DWIDTH 11 0
BBX 8 14 1 0
BITMAP
08
14
22
00
7F
41
C1
C1
FF
C0
C0
C0
40
7F
ENDCHAR
STARTCHAR 00EB
ENCODING 235
SWIDTH 578 0
DWIDTH 11 0
BBX 8 14 1 0
BITMAP
26
26
00
00
7F
41
C1
C1
FF
C0
C0
C0
40
7F
ENDCHAR
STARTCHAR 00EC
ENCODING 236
SWIDTH 210 0
DWIDTH 4 0
BBX 3 15 0 0
BITMAP
80
40
60
20
00
20
20
20
20
20
20
20
20
20
20
ENDCHAR
STARTCHAR 00ED
ENCODING 237
SWIDTH 210 0
DWIDTH 4 0
BBX 3 15 1 0
BITMAP
20
60
40
80
00
40
40
40
40
40
40
40
40
40
40
ENDCHAR
STARTCHAR 00EE
ENCODING 238
SWIDTH 210 0
DWIDTH 4 0
BBX 5 14 0 0
BITMAP
20
70
88
00
20
20
20
20
20
20
20
20
20
20
ENDCHAR
STARTCHAR 00EF
ENCODING 239
SWIDTH 210 0
DWIDTH 4 0
BBX 4 14 0 0
BITMAP
90
90
00
00
20
20
20
20
20
20
20
20
20
20
ENDCHAR
STARTCHAR 00F0
ENCODING 240
SWIDTH 578 0
DWIDTH 11 0
BBX 9 14 1 0
BITMAP
0800
0D80
0600
1A00
0300
0100
7F80
4180
C180
C180
C180
C180
4100
7F00
ENDCHAR
STARTCHAR 00F1
ENCODING 241
SWIDTH 578 0
DWIDTH 11 0
BBX 8 13 2 0
BITMAP
34
5C
00
FE
82
83
83
83
83
83
83
83
83
ENDCHAR
STARTCHAR 00F2
ENCODING 242
SWIDTH 578 0
DWIDTH 11 0
BBX 9 15 1 0
BITMAP
3000
1000
0800
0C00
0000
7F00
4100
C180
C180
C180
C180
C180
C180
4100
7F00
ENDCHAR
STARTCHAR 00F3
ENCODING 243
SWIDTH 578 0
DWIDTH 11 0
BBX 9 15 1 0
BITMAP
0600
0400
0800
1800
0000
7F00
4100
C180
C180
C180
C180
C180
C180
4100
7F00
ENDCHAR
STARTCHAR 00F4
ENCODING 244
SWIDTH 578 0
DWIDTH 11 0
BBX 9 14 1 0
BITMAP
0800
1400
2200
0000
7F00
4100
C180
C180
C180
C180
C180
C180
4100
7F00
ENDCHAR
STARTCHAR 00F5
ENCODING 245
SWIDTH 578 0
DWIDTH 11 0
BBX 9 13 1 0
BITMAP
1A00
2E00
0000
7F00
4100
C180
C180
C180
C180
C180
C180
4100
7F00
ENDCHAR
STARTCHAR 00F6
ENCODING 246
SWIDTH 578 0
DWIDTH 11 0
BBX 9 14 1 0
BITMAP
3200
3200
0000
0000
7F00
4100
C180
C180
C180
C180
C180
C180
4100
7F00
ENDCHAR
STARTCHAR 00F7
ENCODING 247
SWIDTH 578 0
DWIDTH 11 0
BBX 9 9 1 2
BITMAP
0800
0800
0000
0000
FF80
0000
0000
0800
0800
ENDCHAR
STARTCHAR 00F8
ENCODING 248
SWIDTH 578 0
DWIDTH 11 0
BBX 9 10 1 0
BITMAP
7F00
4100
C180
C380
CD80
D980
F180
C180
4100
7F00
ENDCHAR
STARTCHAR 00F9
ENCODING 249
SWIDTH 578 0
DWIDTH 11 0
BBX 9 15 1 0
BITMAP
3000
1000
0800
0C00
0000
C180
C180
C180
C180
C180
C180
C180
C180
4180
7F80
ENDCHAR
STARTCHAR 00FA
ENCODING 250
SWIDTH 578 0
DWIDTH 11 0
BBX 9 15 1 0
BITMAP
0600
0400
0800
1800
0000
C180
C180
C180
C180
C180
C180
C180
C180
4180
7F80
ENDCHAR
STARTCHAR 00FB
ENCODING 251
SWIDTH 578 0
DWIDTH 11 0
BBX 9 14 1 0
BITMAP
0800
1400
2200
0000
C180
C180
C180
C180
C180
C180
C180
C180
4180
7F80
ENDCHAR
STARTCHAR 00FC
ENCODING 252
SWIDTH 578 0
DWIDTH 11 0
BBX 9 14 1 0
BITMAP
3200
3200
0000
0000
C180
C180
C180
C180
C180
C180
C180
C180
4180
7F80
ENDCHAR
STARTCHAR 00FD
ENCODING 253
SWIDTH 526 0
DWIDTH 10 0
BBX 9 19 0 -4
BITMAP
0200
0600
0C00
0800
0000
C080
4080
4180
2100
2100
2200
1200
1200
1400
0C00
0C00
0800
0800
1800
ENDCHAR
STARTCHAR 00FE
ENCODING 254
SWIDTH 578 0
DWIDTH 11 0
BBX 8 18 2 -4
BITMAP
80
80
80
80
FE
82
83
83
83
83
83
83
82
FE
80
80
80
80
ENDCHAR
STARTCHAR 00FF
ENCODING 255
SWIDTH 526 0
DWIDTH 10 0
BBX 9 18 0 -4
BITMAP
1200
1200
0000
0000
C080
4080
4180
2100
2100
2200
1200
1200
1400
0C00
0C00
0800
0800
1800
ENDCHAR
STARTCHAR 0100
ENCODING 256
SWIDTH 631 0
DWIDTH 12 0
BBX 11 16 0 0
BITMAP
0F00
0000
0000
0600
0E00
0900
0900
1180
1080
1080
20C0
3FC0
6040
4060
4020
C020
ENDCHAR
STARTCHAR 0101
ENCODING 257
SWIDTH 526 0
DWIDTH 10 0
BBX 8 13 1 0
BITMAP
3E
00
00
7E
03
01
01
7F
C1
81
81
C1
7F
ENDCHAR
STARTCHAR 0102
ENCODING 258
SWIDTH 631 0
DWIDTH 12 0
BBX 11 17 0 0
BITMAP
0900
0900
0F00
0000
0600
0E00
0900
0900
1180
1080
1080
20C0
3FC0
6040
4060
4020
C020
ENDCHAR
STARTCHAR 0103
ENCODING 259
SWIDTH 526 0
DWIDTH 10 0
BBX 8 14 1 0
BITMAP
22
22
3C
00
7E
03
01
01
7F
C1
81
81
C1
7F
ENDCHAR
STARTCHAR 0104
ENCODING 260
SWIDTH 631 0
DWIDTH 12 0
BBX 11 16 0 -3
BITMAP
0600
0E00
0900
0900
1180
1080
1080
20C0
3FC0
6040
4060
4020
C0E0
0080
0080
00E0
ENDCHAR
STARTCHAR 0105
ENCODING 261
SWIDTH 526 0
DWIDTH 10 0
BBX 8 13 1 -3
BITMAP
7E
03
01
01
7F
C1
81
81
C1
7F
08
08
07
ENDCHAR
STARTCHAR 0106
ENCODING 262
SWIDTH 631 0
DWIDTH 12 0
BBX 9 18 2 0
BITMAP
0600
0400
0800
1800
0000
7F80
8000
8000
8000
8000
8000
8000
8000
8000
8000
8000
8000
7F80
ENDCHAR
STARTCHAR 0107
ENCODING 263
SWIDTH 526 0
DWIDTH 10 0
BBX 8 15 1 0
BITMAP
06
04
08
10
00
7F
40
C0
C0
C0
C0
C0
C0
40
7F
ENDCHAR
STARTCHAR 010C
ENCODING 268
SWIDTH 631 0
DWIDTH 12 0
BBX 9 17 2 0
BITMAP
2200
1400
0800
0000
7F80
8000
8000
8000
8000
8000
8000
8000
8000
8000
8000
8000
7F80
ENDCHAR
STARTCHAR 010D
ENCODING 269
SWIDTH 526 0
DWIDTH 10 0
BBX 8 14 1 0
BITMAP
22
14
08
00
7F
40
C0
C0
C0
C0
C0
C0
40
7F
ENDCHAR
STARTCHAR 010E
ENCODING 270
SWIDTH 684 0
DWIDTH 13 0
BBX 10 17 2 0
BITMAP
2200
1400
0800
0000
FE00
8180
8080
8080
8080
80C0
80C0
80C0
8080
8080
8080
8180
FE00
ENDCHAR
STARTCHAR 010F
ENCODING 271
SWIDTH 631 0
DWIDTH 12 0
BBX 11 15 1 0
BITMAP
0020
0120
0120
0140
0100
7F00
4100
C100
C100
C100
C100
C100
C100
4100
7F00
ENDCHAR
STARTCHAR 0110
ENCODING 272
SWIDTH 684 0
DWIDTH 13 0
BBX 12 13 0 0
BITMAP
3FC0
2060
2020
2030
2030
2030
FE30
2030
2030
2030
2020
2060
3FC0
ENDCHAR
STARTCHAR 0111
ENCODING 273
SWIDTH 578 0
DWIDTH 11 0
BBX 10 14 1 0
BITMAP
0100
0100
0FC0
0100
7F00
4100
C100
C100
C100
C100
C100
C100
4100
7F00
ENDCHAR
STARTCHAR 0112
ENCODING 274
SWIDTH 578 0
DWIDTH 11 0
BBX 8 16 2 0
BITMAP
3C
00
00
FF
80
80
80
80
80
FF
80
80
80
80
80
FF
ENDCHAR
STARTCHAR 0113
ENCODING 275
SWIDTH 578 0
DWIDTH 11 0
BBX 8 13 1 0
BITMAP
3E
00
00
7F
41
C1
C1
FF
C0
C0
C0
40
7F
ENDCHAR
STARTCHAR 0116
ENCODING 278
SWIDTH 578 0
DWIDTH 11 0
BBX 8 17 2 0
BITMAP
18
18
00
00
FF
80
80
80
80
80
FF
80
80
80
80
80
FF
ENDCHAR
STARTCHAR 0117
ENCODING 279
SWIDTH 578 0
DWIDTH 11 0
BBX 8 14 1 0
BITMAP
08
08
00
00
7F
41
C1
C1
FF
C0
C0
C0
40
7F
ENDCHAR
STARTCHAR 0118
ENCODING 280
SWIDTH 578 0
DWIDTH 11 0
BBX 8 16 2 -3
BITMAP
FF
80
80
80
80
80
FF
80
80
80
80
80
FF
04
04
07
ENDCHAR
STARTCHAR 0119
ENCODING 281
SWIDTH 578 0
DWIDTH 11 0
BBX 8 13 1 -3
BITMAP
7F
41
C1
C1
FF
C0
C0
C0
40
7F
08
08
07
ENDCHAR
STARTCHAR 011A
ENCODING 282
SWIDTH 578 0
DWIDTH 11 0
BBX 8 17 2 0
BITMAP
66
3C
18
00
FF
80
80
80
80
80
FF
80
80
80
80
80
FF
ENDCHAR
STARTCHAR 011B
ENCODING 283
SWIDTH 578 0
DWIDTH 11 0
BBX 8 14 1 0
BITMAP
22
14
08
00
7F
41
C1
C1
FF
C0
C0
C0
40
7F
ENDCHAR
STARTCHAR 011E
ENCODING 286
SWIDTH 684 0
DWIDTH 13 0
BBX 9 17 2 0
BITMAP
2200
2200
3E00
0000
7F80
8000
8000
8000
8000
8000
8780
8080
8080
8080
8080
8080
7F80
ENDCHAR
STARTCHAR 011F
ENCODING 287
SWIDTH 578 0
DWIDTH 11 0
BBX 8 18 1 -4
BITMAP
22
22
3E
00
7F
41
C1
C1
C1
C1
C1
C1
41
7F
01
01
01
7F
ENDCHAR
STARTCHAR 0122
ENCODING 290
SWIDTH 684 0
DWIDTH 13 0
BBX 9 17 2 -4
BITMAP
7F80
8000
8000
8000
8000
8000
8780
8080
8080
8080
8080
8080
7F80
0000
0800
0800
1000
ENDCHAR
STARTCHAR 0123
ENCODING 291
SWIDTH 578 0
DWIDTH 11 0
BBX 8 18 1 -4
BITMAP
04
0C
08
00
7F
41
C1
C1
C1
C1
C1
C1
41
7F
01
01
01
7F
ENDCHAR
STARTCHAR 012A
ENCODING 298
SWIDTH 263 0
DWIDTH 5 0
BBX 5 16 0 0
BITMAP
F8
00
00
20
20
20
20
20
20
20
20
20
20
20
20
20
ENDCHAR
STARTCHAR 012B
ENCODING 299
SWIDTH 210 0
DWIDTH 4 0
BBX 5 13 0 0
BITMAP
F8
00
00
20
20
20
20
20
20
20
20
20
20
ENDCHAR
STARTCHAR 012E
ENCODING 302
SWIDTH 263 0
DWIDTH 5 0
BBX 4 16 0 -3
BITMAP
20
20
20
20
20
20
20
20
20
20
20
20
60
80
80
70
ENDCHAR
STARTCHAR 012F
ENCODING 303
SWIDTH 210 0
DWIDTH 4 0
BBX 3 17 0 -3
BITMAP
60
60
00
00
20
20
20
20
20
20
20
20
20
E0
80
80
E0
ENDCHAR
STARTCHAR 0130
ENCODING 304
SWIDTH 263 0
DWIDTH 5 0
BBX 1 17 2 0
BITMAP
80
80
00
00
80
80
80
80
80
80
80
80
80
80
80
80
80
ENDCHAR
STARTCHAR 0131
ENCODING 305
SWIDTH 210 0
DWIDTH 4 0
BBX 1 10 2 0
BITMAP
80
80
80
80
80
80
80
80
80
80
ENDCHAR
STARTCHAR 0136
ENCODING 310
SWIDTH 631 0
DWIDTH 12 0
BBX 9 17 2 -4
BITMAP
8180
8300
8600
8C00
9800
B000
B800
CC00
8400
8200
8300
8100
8080
0000
1800
1000
1000
ENDCHAR
STARTCHAR 0137
ENCODING 311
SWIDTH 526 0
DWIDTH 10 0
BBX 7 18 2 -4
BITMAP
80
80
80
80
86
8C
98
90
B0
D0
88
8C
84
82
00
30
20
20
ENDCHAR
STARTCHAR 0139
ENCODING 313
SWIDTH 526 0
DWIDTH 10 0
BBX 9 18 1 0
BITMAP
3000
2000
4000
C000
0000
4000
4000
4000
4000
4000
4000
4000
4000
4000
4000
4000
4000
7F80
ENDCHAR
STARTCHAR 013A
ENCODING 314
SWIDTH 263 0
DWIDTH 5 0
BBX 3 19 1 0
BITMAP
20
60
40
80
00
C0
C0
C0
C0
C0
C0
C0
C0
C0
C0
C0
C0
40
60
ENDCHAR
STARTCHAR 013B
ENCODING 315
SWIDTH 526 0
DWIDTH 10 0
BBX 8 17 2 -4
BITMAP
80
80
80
80
80
80
80
80
80
80
80
80
FF
00
10
10
30
ENDCHAR
STARTCHAR 013C
ENCODING 316
SWIDTH 263 0
DWIDTH 5 0
BBX 3 18 1 -4
BITMAP
C0
C0
C0
C0
C0
C0
C0
C0
C0
C0
C0
C0
40
60
00
60
40
40
ENDCHAR
STARTCHAR 013D
ENCODING 317
SWIDTH 526 0
DWIDTH 10 0
BBX 8 14 2 0
BITMAP
08
88
88
90
80
80
80
80
80
80
80
80
80
FF
ENDCHAR
STARTCHAR 013E
ENCODING 318
SWIDTH 263 0
DWIDTH 5 0
BBX 4 15 1 0
BITMAP
10
D0
D0
D0
C0
C0
C0
C0
C0
C0
C0
C0
C0
40
60
ENDCHAR
STARTCHAR 0141
ENCODING 321
SWIDTH 526 0
DWIDTH 10 0
BBX 10 13 0 0
BITMAP
2000
2000
2000
2000
2000
2C00
3000
6000
A000
2000
2000
2000
3FC0
ENDCHAR
STARTCHAR 0142
ENCODING 322
SWIDTH 263 0
DWIDTH 5 0
BBX 5 14 0 0
BITMAP
20
20
20
20
20
28
30
E0
20
20
20
20
20
30
ENDCHAR
STARTCHAR 0143
ENCODING 323
SWIDTH 736 0
DWIDTH 14 0
BBX 10 18 2 0
BITMAP
0200
0600
0C00
0800
0000
C040
C040
E040
A040
9040
9840
8840
8440
8640
8240
8140
81C0
80C0
ENDCHAR
STARTCHAR 0144
ENCODING 324
SWIDTH 578 0
DWIDTH 11 0
BBX 8 15 2 0
BITMAP
0C
08
10
10
00
FE
82
83
83
83
83
83
83
83
83
ENDCHAR
STARTCHAR 0145
ENCODING 325
SWIDTH 736 0
DWIDTH 14 0
BBX 10 17 2 -4
BITMAP
C040
C040
E040
A040
9040
9840
8840
8440
8640
8240
8140
81C0
80C0
0000
0800
0800
1800
ENDCHAR
STARTCHAR 0146
ENCODING 326
SWIDTH 578 0
DWIDTH 11 0
BBX 8 14 2 -4
BITMAP
FE
82
83
83
83
83
83
83
83
83
00
10
10
20
ENDCHAR
STARTCHAR 0147
ENCODING 327
SWIDTH 736 0
DWIDTH 14 0
BBX 10 17 2 0
BITMAP
3200
1E00
0800
0000
C040
C040
E040
A040
9040
9840
8840
8440
8640
8240
8140
81C0
80C0
ENDCHAR
STARTCHAR 0148
ENCODING 328
SWIDTH 578 0
DWIDTH 11 0
BBX 8 14 2 0
BITMAP
44
28
10
00
FE
82
83
83
83
83
83
83
83
83
ENDCHAR
STARTCHAR 014C
ENCODING 332
SWIDTH 684 0
DWIDTH 13 0
BBX 10 16 2 0
BITMAP
3E00
0000
0000
7F80
8080
80C0
80C0
80C0
80C0
80C0
80C0
80C0
80C0
80C0
8080
7F80
ENDCHAR
STARTCHAR 014D
ENCODING 333
SWIDTH 578 0
DWIDTH 11 0
BBX 9 13 1 0
BITMAP
3E00
0000
0000
7F00
4100
C180
C180
C180
C180
C180
C180
4100
7F00
ENDCHAR
STARTCHAR 0150
ENCODING 336
SWIDTH 684 0
DWIDTH 13 0
BBX 10 18 2 0
BITMAP
0900
0900
1200
3600
0000
7F80
8080
80C0
80C0
80C0
80C0
80C0
80C0
80C0
80C0
80C0
8080
7F80
ENDCHAR
STARTCHAR 0151
ENCODING 337
SWIDTH 578 0
DWIDTH 11 0
BBX 9 15 1 0
BITMAP
0900
1B00
1200
2400
0000
7F00
4100
C180
C180
C180
C180
C180
C180
4100
7F00
ENDCHAR
STARTCHAR 0152
ENCODING 338
SWIDTH 947 0
DWIDTH 18 0
BBX 15 13 2 0
BITMAP
7FFE
8180
8180
8180
8180
8180
81FE
8180
8180
8180
8180
8180
7FFE
ENDCHAR
STARTCHAR 0153
ENCODING 339
SWIDTH 894 0
DWIDTH 17 0
BBX 15 10 1 0
BITMAP
7EFC
4182
C102
C102
C1FE
C100
C100
C100
4180
7EFE
ENDCHAR
STARTCHAR 0154
ENCODING 340
SWIDTH 631 0
DWIDTH 12 0
BBX 9 18 2 0
BITMAP
0400
0C00
1800
1000
0000
FF00
8180
8180
8180
8180
8180
8180
FF00
8600
8200
8100
8100
8080
ENDCHAR
STARTCHAR 0155
ENCODING 341
SWIDTH 368 0
DWIDTH 7 0
BBX 5 15 1 0
BITMAP
08
18
30
20
00
78
C0
C0
C0
C0
C0
C0
C0
C0
C0
ENDCHAR
STARTCHAR 0156
ENCODING 342
SWIDTH 631 0
DWIDTH 12 0
BBX 9 17 2 -4
BITMAP
FF00
8180
8180
8180
8180
8180
8180
FF00
8600
8200
8100
8100
8080
0000
1800
1000
1000
ENDCHAR
STARTCHAR 0157
ENCODING 343
SWIDTH 368 0
DWIDTH 7 0
BBX 5 14 1 -4
BITMAP
78
C0
C0
C0
C0
C0
C0
C0
C0
C0
00
C0
80
80
ENDCHAR
STARTCHAR 0158
ENCODING 344
SWIDTH 631 0
DWIDTH 12 0
BBX 9 17 2 0
BITMAP
6600
3C00
1800
0000
FF00
8180
8180
8180
8180
8180
8180
FF00
8600
8200
8100
8100
8080
ENDCHAR
STARTCHAR 0159
ENCODING 345
SWIDTH 368 0
DWIDTH 7 0
BBX 5 14 1 0
BITMAP
C8
70
20
00
78
C0
C0
C0
C0
C0
C0
C0
C0
C0
ENDCHAR
STARTCHAR 015A
ENCODING 346
SWIDTH 578 0
DWIDTH 11 0
BBX 9 18 1 0
BITMAP
0600
0400
0800
1800
0000
7F00
C000
8000
8000
C000
6000
3F00
0180
0180
0080
0080
0180
FF00
ENDCHAR
STARTCHAR 015B
ENCODING 347
SWIDTH 473 0
DWIDTH 9 0
BBX 7 15 1 0
BITMAP
04
08
18
10
00
7E
C0
80
C0
78
0E
02
02
02
FC
ENDCHAR
STARTCHAR 015E
ENCODING 350
SWIDTH 578 0
DWIDTH 11 0
BBX 9 16 1 -3
BITMAP
7F00
C000
8000
8000
C000
6000
3F00
0180
0180
0080
0080
0180
FF00
0400
0400
3C00
ENDCHAR
STARTCHAR 015F
ENCODING 351
SWIDTH 473 0
DWIDTH 9 0
BBX 7 13 1 -3
BITMAP
7E
C0
80
C0
78
0E
02
02
02
FC
08
08
38
ENDCHAR
STARTCHAR 0160
ENCODING 352
SWIDTH 578 0
DWIDTH 11 0
BBX 9 17 1 0
BITMAP
2200
1400
0800
0000
7F00
C000
8000
8000
C000
6000
3F00
0180
0180
0080
0080
0180
FF00
ENDCHAR
STARTCHAR 0161
ENCODING 353
SWIDTH 473 0
DWIDTH 9 0
BBX 7 14 1 0
BITMAP
44
28
10
00
7E
C0
80
C0
78
0E
02
02
02
FC
ENDCHAR
STARTCHAR 0162
ENCODING 354
SWIDTH 578 0
DWIDTH 11 0
BBX 11 16 0 -3
BITMAP
FFE0
0400
0400
0400
0400
0400
0400
0400
0400
0400
0400
0400
0600
0200
0200
1E00
ENDCHAR
STARTCHAR 0163
ENCODING 355
SWIDTH 368 0
DWIDTH 7 0
BBX 6 16 1 -3
BITMAP
C0
C0
C0
F8
C0
C0
C0
C0
C0
C0
C0
40
7C
08
08
70
ENDCHAR
STARTCHAR 0164
ENCODING 356
SWIDTH 578 0
DWIDTH 11 0
BBX 11 17 0 0
BITMAP
1100
0A00
0400
0000
FFE0
0400
0400
0400
0400
0400
0400
0400
0400
0400
0400
0400
0400
ENDCHAR
STARTCHAR 0165
ENCODING 357
SWIDTH 368 0
DWIDTH 7 0
BBX 6 15 1 0
BITMAP
08
08
D0
D0
C0
F8
C0
C0
C0
C0
C0
C0
C0
40
7C
ENDCHAR
STARTCHAR 016A
ENCODING 362
SWIDTH 684 0
DWIDTH 13 0
BBX 9 16 2 0
BITMAP
3E00
0000
0000
8080
8080
8080
8080
8080
8080
8080
8080
8080
8080
8080
8080
7F00
ENDCHAR
STARTCHAR 016B
ENCODING 363
SWIDTH 578 0
DWIDTH 11 0
BBX 9 13 1 0
BITMAP
3E00
0000
0000
C180
C180
C180
C180
C180
C180
C180
C180
4180
7F80
ENDCHAR
STARTCHAR 016E
ENCODING 366
SWIDTH 684 0
DWIDTH 13 0
BBX 9 18 2 0
BITMAP
1C00
1400
1400
1C00
0000
8080
8080
8080
8080
8080
8080
8080
8080
8080
8080
8080
8080
7F00
ENDCHAR
STARTCHAR 016F
ENCODING 367
SWIDTH 578 0
DWIDTH 11 0
BBX 9 15 1 0
BITMAP
1C00
1400
1400
1C00
0000
C180
C180
C180
C180
C180
C180
C180
C180
4180
7F80
ENDCHAR
STARTCHAR 0170
ENCODING 368
SWIDTH 684 0
DWIDTH 13 0
BBX 9 18 2 0
BITMAP
0900
1B00
1200
2400
0000
8080
8080
8080
8080
8080
8080
8080
8080
8080
8080
8080
8080
7F00
ENDCHAR
STARTCHAR 0171
ENCODING 369
SWIDTH 578 0
DWIDTH 11 0
BBX 9 15 1 0
BITMAP
0900
1B00
1200
2400
0000
C180
C180
C180
C180
C180
C180
C180
C180
4180
7F80
ENDCHAR
STARTCHAR 0172
ENCODING 370
SWIDTH 684 0
DWIDTH 13 0
BBX 9 16 2 -3
BITMAP
8080
8080
8080
8080
8080
8080
8080
8080
8080
8080
8080
8080
7F00
0800
0800
0E00
ENDCHAR
STARTCHAR 0173
ENCODING 371
SWIDTH 578 0
DWIDTH 11 0
BBX 9 13 1 -3
BITMAP
C180
C180
C180
C180
C180
C180
C180
C180
4180
7F80
0400
0400
0780
ENDCHAR
STARTCHAR 0178
ENCODING 376
SWIDTH 578 0
DWIDTH 11 0
BBX 10 17 0 0
BITMAP
1300
1300
0000
0000
C040
40C0
2080
3180
1100
1B00
0A00
0C00
0400
0400
0400
0400
0400
ENDCHAR
STARTCHAR 0179
ENCODING 377
SWIDTH 578 0
DWIDTH 11 0
BBX 9 18 1 0
BITMAP
0200
0400
0C00
0800
0000
FF80
0180
0100
0200
0600
0400
0800
1800
3000
2000
4000
C000
FF80
ENDCHAR
STARTCHAR 017A
ENCODING 378
SWIDTH 526 0
DWIDTH 10 0
BBX 8 15 1 0
BITMAP
04
08
18
10
00
FE
02
04
0C
18
10
20
60
C0
FF
ENDCHAR
STARTCHAR 017B
ENCODING 379
SWIDTH 578 0
DWIDTH 11 0
BBX 9 17 1 0
BITMAP
0800
0800
0000
0000
FF80
0180
0100
0200
0600
0400
0800
1800
3000
2000
4000
C000
FF80
ENDCHAR
STARTCHAR 017C
ENCODING 380
SWIDTH 526 0
DWIDTH 10 0
BBX 8 14 1 0
BITMAP
18
18
00
00
FE
02
04
0C
18
10
20
60
C0
FF
ENDCHAR
STARTCHAR 017D
ENCODING 381
SWIDTH 578 0
DWIDTH 11 0
BBX 9 17 1 0
BITMAP
2200
1400
0800
0000
FF80
0180
0100
0200
0600
0400
0800
1800
3000
2000
4000
C000
FF80
ENDCHAR
STARTCHAR 017E
ENCODING 382
SWIDTH 526 0
DWIDTH 10 0
BBX 8 14 1 0
BITMAP
44
38
10
00
FE
02
04
0C
18
10
20
60
C0
FF
ENDCHAR
STARTCHAR 0192
ENCODING 402
SWIDTH 578 0
DWIDTH 11 0
BBX 8 17 1 -3
BITMAP
0F
10
10
10
1F
10
10
10
10
10
10
10
10
10
10
30
E0
ENDCHAR
STARTCHAR 0218
ENCODING 536
SWIDTH 578 0
DWIDTH 11 0
BBX 9 17 1 -4
BITMAP
7F00
C000
8000
8000
C000
6000
3F00
0180
0180
0080
0080
0180
FF00
0000
0800
0800
1000
ENDCHAR
STARTCHAR 0219
ENCODING 537
SWIDTH 473 0
DWIDTH 9 0
BBX 7 14 1 -4
BITMAP
7E
C0
80
C0
78
0E
02
02
02
FC
00
10
10
30
ENDCHAR
STARTCHAR 021A
ENCODING 538
SWIDTH 578 0
DWIDTH 11 0
BBX 11 17 0 -4
BITMAP
FFE0
0400
0400
0400
0400
0400
0400
0400
0400
0400
0400
0400
0400
0000
0400
0400
0800
ENDCHAR
STARTCHAR 021B
ENCODING 539
SWIDTH 368 0
DWIDTH 7 0
BBX 6 17 1 -4
BITMAP
C0
C0
C0
F8
C0
C0
C0
C0
C0
C0
C0
40
7C
00
30
20
20
ENDCHAR
STARTCHAR 0237
ENCODING 567
SWIDTH 210 0
DWIDTH 4 0
BBX 3 14 0 -4
BITMAP
20
20
20
20
20
20
20
20
20
20
20
20
60
C0
ENDCHAR
STARTCHAR 02C6
ENCODING 710
SWIDTH 526 0
DWIDTH 10 0
BBX 5 3 2 11
BITMAP
20
50
88
ENDCHAR
STARTCHAR 02C7
ENCODING 711
SWIDTH 526 0
DWIDTH 10 0
BBX 5 3 2 11
BITMAP
88
70
20
ENDCHAR
STARTCHAR 02C9
ENCODING 713
SWIDTH 526 0
DWIDTH 10 0
BBX 5 1 2 12
BITMAP
F8
ENDCHAR
STARTCHAR 02D8
ENCODING 728
SWIDTH 526 0
DWIDTH 10 0
BBX 5 3 2 11
BITMAP
88
88
78
ENDCHAR
STARTCHAR 02D9
ENCODING 729
SWIDTH 526 0
DWIDTH 10 0
BBX 1 2 4 12
BITMAP
80
80
ENDCHAR
STARTCHAR 02DA
ENCODING 730
SWIDTH 526 0
DWIDTH 10 0
BBX 4 4 3 11
BITMAP
E0
90
90
E0
ENDCHAR
STARTCHAR 02DB
ENCODING 731
SWIDTH 526 0
DWIDTH 10 0
BBX 4 4 3 -3
BITMAP
60
80
80
70
ENDCHAR
STARTCHAR 02DC
ENCODING 732
SWIDTH 526 0
DWIDTH 10 0
BBX 6 2 2 11
BITMAP
6C
98
ENDCHAR
STARTCHAR 02DD
ENCODING 733
SWIDTH 526 0
DWIDTH 10 0
BBX 6 4 3 11
BITMAP
6C
48
90
90
ENDCHAR
STARTCHAR 0300
ENCODING 768
SWIDTH 0 0
DWIDTH 0 0
BBX 4 4 -8 11
BITMAP
C0
40
20
30
ENDCHAR
STARTCHAR 0301
ENCODING 769
SWIDTH 0 0
DWIDTH 0 0
BBX 3 4 -6 11
BITMAP
60
40
80
80
ENDCHAR
STARTCHAR 0302
ENCODING 770
SWIDTH 0 0
DWIDTH 0 0
BBX 5 3 -8 11
BITMAP
20
50
88
ENDCHAR
STARTCHAR 0303
ENCODING 771
SWIDTH 0 0
DWIDTH 0 0
BBX 5 2 -8 11
BITMAP
68
B8
ENDCHAR
STARTCHAR 0304
ENCODING 772
SWIDTH 0 0
DWIDTH 0 0
BBX 5 1 -8 12
BITMAP
F8
ENDCHAR
STARTCHAR 0306
ENCODING 774
SWIDTH 0 0
DWIDTH 0 0
BBX 5 3 -8 11
BITMAP
88
88
78
ENDCHAR
STARTCHAR 0307
ENCODING 775
SWIDTH 0 0
DWIDTH 0 0
BBX 1 2 -6 12
BITMAP
80
80
ENDCHAR
STARTCHAR 0308
ENCODING 776
SWIDTH 0 0
DWIDTH 0 0
BBX 5 2 -8 12
BITMAP
C8
C8
ENDCHAR
STARTCHAR 030A
ENCODING 778
SWIDTH 0 0
DWIDTH 0 0
BBX 3 4 -7 11
BITMAP
E0
A0
A0
E0
ENDCHAR
STARTCHAR 030B
ENCODING 779
SWIDTH 0 0
DWIDTH 0 0
BBX 6 4 -8 11
BITMAP
24
64
48
98
ENDCHAR
STARTCHAR 030C
ENCODING 780
SWIDTH 0 0
DWIDTH 0 0
BBX 5 3 -8 11
BITMAP
88
50
20
ENDCHAR
STARTCHAR 0326
ENCODING 806
SWIDTH 0 0
DWIDTH 0 0
BBX 2 3 -7 -4
BITMAP
40
40
80
ENDCHAR
STARTCHAR 0327
ENCODING 807
SWIDTH 0 0
DWIDTH 0 0
BBX 3 4 -7 -3
BITMAP
20
20
20
E0
ENDCHAR
STARTCHAR 0328
ENCODING 808
SWIDTH 0 0
DWIDTH 0 0
BBX 4 4 -7 -3
BITMAP
60
80
80
70
ENDCHAR
STARTCHAR 03C0
ENCODING 960
SWIDTH 578 0
DWIDTH 11 0
BBX 8 10 2 0
BITMAP
FF
83
83
83
83
83
83
83
83
83
ENDCHAR
STARTCHAR 1E9E
ENCODING 7838
SWIDTH 684 0
DWIDTH 13 0
BBX 10 13 2 0
BITMAP
7F80
8100
8300
8600
8400
8800
8F80
80C0
80C0
80C0
80C0
80C0
9F80
ENDCHAR
STARTCHAR 2013
ENCODING 8211
SWIDTH 578 0
DWIDTH 11 0
BBX 9 1 1 6
BITMAP
FF80
ENDCHAR
STARTCHAR 2014
ENCODING 8212
SWIDTH 1000 0
DWIDTH 19 0
BBX 17 1 1 6
BITMAP
FFFF80
ENDCHAR
STARTCHAR 2018
ENCODING 8216
SWIDTH 263 0
DWIDTH 5 0
BBX 3 5 1 9
BITMAP
20
60
40
40
C0
ENDCHAR
STARTCHAR 2019
ENCODING 8217
SWIDTH 263 0
DWIDTH 5 0
BBX 3 5 1 9
BITMAP
60
40
40
40
80
ENDCHAR
STARTCHAR 201A
ENCODING 8218
SWIDTH 263 0
DWIDTH 5 0
BBX 2 5 1 -3
BITMAP
40
C0
80
80
80
ENDCHAR
STARTCHAR 201C
ENCODING 8220
SWIDTH 421 0
DWIDTH 8 0
BBX 6 5 1 9
BITMAP
24
64
48
48
C8
ENDCHAR
STARTCHAR 201D
ENCODING 8221
SWIDTH 421 0
DWIDTH 8 0
BBX 6 5 1 9
BITMAP
6C
48
48
48
90
ENDCHAR
STARTCHAR 201E
ENCODING 8222
SWIDTH 421 0
DWIDTH 8 0
BBX 5 5 1 -3
BITMAP
48
C8
98
90
90
ENDCHAR
STARTCHAR 2020
ENCODING 8224
SWIDTH 473 0
DWIDTH 9 0
BBX 7 15 1 -2
BITMAP
10
10
10
10
FE
10
10
10
10
10
10
10
10
10
10
ENDCHAR
STARTCHAR 2021
ENCODING 8225
SWIDTH 473 0
DWIDTH 9 0
BBX 7 15 1 -2
BITMAP
10
10
10
10
FE
10
10
10
10
10
FE
10
10
10
10
ENDCHAR
STARTCHAR 2022
ENCODING 8226
SWIDTH 368 0
DWIDTH 7 0
BBX 3 4 2 5
BITMAP
E0
E0
E0
E0
ENDCHAR
STARTCHAR 2026
ENCODING 8230
SWIDTH 789 0
DWIDTH 15 0
BBX 11 2 2 0
BITMAP
8C60
8C60
ENDCHAR
STARTCHAR 2030
ENCODING 8240
SWIDTH 1210 0
DWIDTH 23 0
BBX 21 13 1 0
BITMAP
F82000
884000
884000
888000
888000
893CF8
894488
FA4488
024488
044488
044488
084488
183CF8
ENDCHAR
STARTCHAR 2039
ENCODING 8249
SWIDTH 263 0
DWIDTH 5 0
BBX 4 9 1 1
BITMAP
20
30
40
C0
80
C0
40
20
30
ENDCHAR
STARTCHAR 203A
ENCODING 8250
SWIDTH 263 0
DWIDTH 5 0
BBX 4 9 1 1
BITMAP
80
80
40
20
30
20
40
80
80
ENDCHAR
STARTCHAR 2044
ENCODING 8260
SWIDTH 157 0
DWIDTH 3 0
BBX 7 13 -2 0
BITMAP
02
04
04
08
08
10
10
20
20
40
40
80
80
ENDCHAR
STARTCHAR 2070
ENCODING 8304
SWIDTH 368 0
DWIDTH 7 0
BBX 5 8 1 5
BITMAP
F8
88
88
88
88
88
88
F8
ENDCHAR
STARTCHAR 2074
ENCODING 8308
SWIDTH 368 0
DWIDTH 7 0
BBX 5 8 1 5
BITMAP
20
20
40
48
C8
88
F8
08
ENDCHAR
STARTCHAR 2080
ENCODING 8320
SWIDTH 368 0
DWIDTH 7 0
BBX 5 8 1 0
BITMAP
F8
88
88
88
88
88
88
F8
ENDCHAR
STARTCHAR 2081
ENCODING 8321
SWIDTH 368 0
DWIDTH 7 0
BBX 5 8 1 0
BITMAP
60
20
20
20
20
20
20
F8
ENDCHAR
STARTCHAR 2082
ENCODING 8322
SWIDTH 368 0
DWIDTH 7 0
BBX 5 8 1 0
BITMAP
F8
08
08
18
E0
80
80
F8
ENDCHAR
STARTCHAR 2083
ENCODING 8323
SWIDTH 368 0
DWIDTH 7 0
BBX 5 8 1 0
BITMAP
F8
08
08
70
08
08
08
F8
ENDCHAR
STARTCHAR 2084
ENCODING 8324
SWIDTH 368 0
DWIDTH 7 0
BBX 5 8 1 0
BITMAP
20
20
40
48
C8
88
F8
08
ENDCHAR
STARTCHAR 20AC
ENCODING 8364
SWIDTH 578 0
DWIDTH 11 0
BBX 9 13 1 0
BITMAP
3F80
6000
4000
4000
4000
FF00
4000
FE00
4000
4000
4000
6000
3F80
ENDCHAR
STARTCHAR 20BA
ENCODING 8378
SWIDTH 578 0
DWIDTH 11 0
BBX 10 13 0 0
BITMAP
3000
3000
3300
3C00
7000
B700
3800
F040
3040
3040
30C0
3180
3F00
ENDCHAR
STARTCHAR 20BD
ENCODING 8381
SWIDTH 578 0
DWIDTH 11 0
BBX 9 13 1 0
BITMAP
7F00
4180
4080
4080
4080
4180
FF00
4000
FE00
4000
4000
4000
4000
ENDCHAR
STARTCHAR 2113
ENCODING 8467
SWIDTH 263 0
DWIDTH 5 0
BBX 3 14 1 0
BITMAP
C0
C0
C0
C0
C0
C0
C0
C0
C0
C0
C0
C0
40
60
ENDCHAR
STARTCHAR 2122
ENCODING 8482
SWIDTH 789 0
DWIDTH 15 0
BBX 14 7 0 6
BITMAP
FD0C
118C
1194
1154
1164
1164
1104
ENDCHAR
STARTCHAR 2126
ENCODING 8486
SWIDTH 684 0
DWIDTH 13 0
BBX 11 13 1 0
BITMAP
3FC0
4040
4060
4060
4060
4060
4060
4060
4060
6040
2080
1180
F1E0
ENDCHAR
STARTCHAR 212E
ENCODING 8494
SWIDTH 894 0
DWIDTH 17 0
BBX 15 13 1 0
BITMAP
0FC0
1030
2008
600C
E00C
E00C
FFFE
E000
E000
6000
2008
1030
0FC0
ENDCHAR
STARTCHAR 2202
ENCODING 8706
SWIDTH 578 0
DWIDTH 11 0
BBX 8 14 1 0
BITMAP
7E
03
01
01
01
7F
41
C1
C1
C1
C1
C1
41
7F
ENDCHAR
STARTCHAR 2206
ENCODING 8710
SWIDTH 631 0
DWIDTH 12 0
BBX 12 13 0 0
BITMAP
0600
0F00
0900
0900
1980
1080
1080
30C0
2040
2040
4060
4020
FFF0
ENDCHAR
STARTCHAR 220F
ENCODING 8719
SWIDTH 684 0
DWIDTH 13 0
BBX 10 15 2 -2
BITMAP
FFC0
80C0
80C0
80C0
80C0
80C0
80C0
80C0
80C0
80C0
80C0
80C0
80C0
80C0
80C0
ENDCHAR
STARTCHAR 2211
ENCODING 8721
SWIDTH 578 0
DWIDTH 11 0
BBX 9 15 1 -2
BITMAP
FF80
C000
4000
2000
3000
1800
0800
0C00
0800
1800
3000
2000
4000
C000
FF80
ENDCHAR
STARTCHAR 2212
ENCODING 8722
SWIDTH 578 0
DWIDTH 11 0
BBX 9 1 1 6
BITMAP
FF80
ENDCHAR
STARTCHAR 2215
ENCODING 8725
SWIDTH 157 0
DWIDTH 3 0
BBX 7 13 -2 0
BITMAP
02
04
04
08
08
10
10
20
20
40
40
80
80
ENDCHAR
STARTCHAR 2219
ENCODING 8729
SWIDTH 263 0
DWIDTH 5 0
BBX 1 2 2 5
BITMAP
80
80
ENDCHAR
STARTCHAR 221A
ENCODING 8730
SWIDTH 578 0
DWIDTH 11 0
BBX 11 15 0 0
BITMAP
0020
0040
0040
0040
0080
0080
0080
E100
2100
1100
1200
1200
0E00
0C00
0C00
ENDCHAR
STARTCHAR 221E
ENCODING 8734
SWIDTH 631 0
DWIDTH 12 0
BBX 10 6 1 4
BITMAP
FF80
8840
8840
8840
8840
FF80
ENDCHAR
STARTCHAR 222B
ENCODING 8747
SWIDTH 421 0
DWIDTH 8 0
BBX 7 18 0 -4
BITMAP
0E
18
10
10
10
10
10
10
10
10
10
10
10
10
10
10
10
E0
ENDCHAR
STARTCHAR 2248
ENCODING 8776
SWIDTH 578 0
DWIDTH 11 0
BBX 9 7 1 3
BITMAP
3080
4900
8600
0000
3080
4900
8600
ENDCHAR
STARTCHAR 2260
ENCODING 8800
SWIDTH 578 0
DWIDTH 11 0
BBX 9 10 1 1
BITMAP
0200
0200
FF80
0C00
0800
1800
FF80
2000
2000
2000
ENDCHAR
STARTCHAR 2264
ENCODING 8804
SWIDTH 578 0
DWIDTH 11 0
BBX 9 11 1 0
BITMAP
0180
0700
1C00
6000
8000
6000
1C00
0700
0180
0000
FF80
ENDCHAR
STARTCHAR 2265
ENCODING 8805
SWIDTH 578 0
DWIDTH 11 0
BBX 9 11 1 0
BITMAP
C000
7000
1C00
0300
0080
0300
1C00
7000
C000
0000
FF80
ENDCHAR
STARTCHAR 25CA
ENCODING 9674
SWIDTH 578 0
DWIDTH 11 0
BBX 9 13 1 0
BITMAP
0800
1400
3600
2200
4100
4100
8080
4100
4100
2200
3600
1400
0800
ENDCHAR
STARTCHAR F000
ENCODING 61440
SWIDTH 684 0
DWIDTH 13 0
BBX 11 10 1 2
BITMAP
0400
0600
0E00
0F00
1F00
1F80
3F80
7FC0
7FC0
FFE0
ENDCHAR
STARTCHAR FB01
ENCODING 64257
SWIDTH 578 0
DWIDTH 11 0
BBX 8 14 2 0
BITMAP
F9
81
80
80
F1
81
81
81
81
81
81
81
81
81
ENDCHAR
STARTCHAR FB02
ENCODING 64258
SWIDTH 631 0
DWIDTH 12 0
BBX 9 14 2 0
BITMAP
F900
8100
8100
8100
F100
8100
8100
8100
8100
8100
8100
8100
8100
8180
ENDCHAR
ENDFONT
